<svg width="109" height="34" viewBox="0 0 109 34" fill="none" xmlns="http://www.w3.org/2000/svg">
<rect x="0.5" y="0.5" width="108" height="33" rx="4.5" stroke="#F3F3F3"/>
<path fill-rule="evenodd" clip-rule="evenodd" d="M15.3732 25L25.301 10.7472C24.5705 10.051 23.7184 9.47492 22.7785 9.05181L19.0857 14.2768L15.3388 9C14.3939 9.40941 13.535 9.97242 12.7957 10.6564L17.2287 16.9976L12.7974 23.3304C13.5453 24.0219 14.4154 24.5897 15.3732 25Z" fill="#623EBA"/>
<path fill-rule="evenodd" clip-rule="evenodd" d="M20.621 21.6835L22.7797 24.9328C23.7273 24.5061 24.5856 23.9239 25.32 23.2199L23.0692 20.0284C22.4478 20.7948 21.5987 21.3786 20.621 21.6835Z" fill="#623EBA"/>
<path fill-rule="evenodd" clip-rule="evenodd" d="M23.9084 18.5075C24.072 18.0218 24.1606 17.5031 24.1606 16.9643C24.1606 16.4539 24.0812 15.9616 23.9337 15.4983H27.8692C27.9552 15.9839 28 16.4832 28 16.9926C28 17.5093 27.9539 18.0154 27.8655 18.5075H23.9084Z" fill="#623EBA"/>
<path fill-rule="evenodd" clip-rule="evenodd" d="M14.1848 15.5151L10.1307 15.499C10.0448 15.9843 10 16.4834 10 16.9926C10 17.509 10.0461 18.015 10.1344 18.5068L14.2098 18.4906C14.0498 18.0098 13.9633 17.4969 13.9633 16.9643C13.9633 16.4601 14.0408 15.9735 14.1848 15.5151Z" fill="#623EBA"/>
<path d="M39.544 23L43.048 17.336L39.496 11.8H41.848L44.36 15.704L46.664 11.8H48.968L45.464 17.432L49.048 23H46.696L44.152 19.048L41.848 23H39.544ZM53.8648 23.192C53.0648 23.192 52.3554 23.0213 51.7368 22.68C51.1181 22.3387 50.6328 21.8587 50.2808 21.24C49.9288 20.6213 49.7528 19.9067 49.7528 19.096C49.7528 18.2747 49.9234 17.544 50.2648 16.904C50.6168 16.264 51.0968 15.768 51.7048 15.416C52.3234 15.0533 53.0488 14.872 53.8808 14.872C54.6594 14.872 55.3474 15.0427 55.9448 15.384C56.5421 15.7253 57.0061 16.1947 57.3368 16.792C57.6781 17.3787 57.8488 18.0347 57.8488 18.76C57.8488 18.8773 57.8434 19 57.8328 19.128C57.8328 19.256 57.8274 19.3893 57.8168 19.528H51.7848C51.8274 20.1467 52.0408 20.632 52.4248 20.984C52.8194 21.336 53.2941 21.512 53.8488 21.512C54.2648 21.512 54.6114 21.4213 54.8888 21.24C55.1768 21.048 55.3901 20.8027 55.5288 20.504H57.6088C57.4594 21.0053 57.2088 21.464 56.8568 21.88C56.5154 22.2853 56.0888 22.6053 55.5768 22.84C55.0754 23.0747 54.5048 23.192 53.8648 23.192ZM53.8808 16.536C53.3794 16.536 52.9368 16.68 52.5528 16.968C52.1688 17.2453 51.9234 17.672 51.8168 18.248H55.7688C55.7368 17.7253 55.5448 17.3093 55.1928 17C54.8408 16.6907 54.4034 16.536 53.8808 16.536ZM59.5713 23V15.064H61.3793L61.5393 16.408C61.7846 15.9387 62.1366 15.5653 62.5953 15.288C63.0646 15.0107 63.6139 14.872 64.2433 14.872C65.2246 14.872 65.9873 15.1813 66.5312 15.8C67.0752 16.4187 67.3472 17.3253 67.3472 18.52V23H65.2993V18.712C65.2993 18.0293 65.1606 17.5067 64.8833 17.144C64.6059 16.7813 64.1739 16.6 63.5873 16.6C63.0113 16.6 62.5366 16.8027 62.1633 17.208C61.8006 17.6133 61.6193 18.1787 61.6193 18.904V23H59.5713ZM72.6656 20.632C72.2816 20.632 71.9243 20.5893 71.5936 20.504L71.0016 21.096C71.183 21.192 71.4283 21.272 71.7376 21.336C72.047 21.4 72.5483 21.464 73.2416 21.528C74.2976 21.624 75.0656 21.8747 75.5456 22.28C76.0256 22.6853 76.2656 23.2453 76.2656 23.96C76.2656 24.4293 76.1376 24.872 75.8816 25.288C75.6256 25.7147 75.231 26.056 74.6976 26.312C74.1643 26.5787 73.4816 26.712 72.6496 26.712C71.519 26.712 70.607 26.4987 69.9136 26.072C69.2203 25.656 68.8736 25.0267 68.8736 24.184C68.8736 23.4693 69.2203 22.8507 69.9136 22.328C69.7003 22.232 69.5136 22.1307 69.3536 22.024C69.2043 21.9173 69.071 21.8053 68.9536 21.688V21.32L70.3456 19.848C69.727 19.304 69.4176 18.6053 69.4176 17.752C69.4176 17.2187 69.5456 16.7333 69.8016 16.296C70.0683 15.8587 70.4416 15.512 70.9216 15.256C71.4016 15 71.983 14.872 72.6656 14.872C73.1136 14.872 73.5296 14.936 73.9136 15.064H76.9216V16.312L75.5616 16.408C75.775 16.8133 75.8816 17.2613 75.8816 17.752C75.8816 18.2853 75.7536 18.7707 75.4976 19.208C75.2416 19.6453 74.8683 19.992 74.3776 20.248C73.8976 20.504 73.327 20.632 72.6656 20.632ZM72.6656 19.064C73.0816 19.064 73.423 18.952 73.6896 18.728C73.967 18.504 74.1056 18.184 74.1056 17.768C74.1056 17.352 73.967 17.032 73.6896 16.808C73.423 16.584 73.0816 16.472 72.6656 16.472C72.2283 16.472 71.8763 16.584 71.6096 16.808C71.343 17.032 71.2096 17.352 71.2096 17.768C71.2096 18.184 71.343 18.504 71.6096 18.728C71.8763 18.952 72.2283 19.064 72.6656 19.064ZM70.7456 23.976C70.7456 24.3707 70.927 24.664 71.2896 24.856C71.663 25.0587 72.1163 25.16 72.6496 25.16C73.1616 25.16 73.5776 25.0533 73.8976 24.84C74.2176 24.6373 74.3776 24.36 74.3776 24.008C74.3776 23.72 74.271 23.48 74.0576 23.288C73.855 23.096 73.4443 22.9787 72.8256 22.936C72.3883 22.904 71.983 22.856 71.6096 22.792C71.3003 22.9627 71.0763 23.1493 70.9376 23.352C70.8096 23.5547 70.7456 23.7627 70.7456 23.976ZM78.415 23V11.48H80.463V23H78.415ZM83.5476 26.52L85.3876 22.472H84.9076L81.8196 15.064H84.0436L86.2676 20.648L88.5876 15.064H90.7636L85.7236 26.52H83.5476Z" fill="#623EBA"/>
</svg>
