<svg width="26" height="24" viewBox="0 0 26 24" fill="none" xmlns="http://www.w3.org/2000/svg">
<path fill-rule="evenodd" clip-rule="evenodd" d="M9.37317 20L19.301 5.74717C18.5705 5.051 17.7184 4.47492 16.7785 4.05181L13.0857 9.27684L9.33878 4C8.39394 4.40941 7.53504 4.97242 6.79572 5.65638L11.2287 11.9976L6.79737 18.3304C7.54527 19.0219 8.41545 19.5897 9.37317 20Z" fill="#623EBA"/>
<path fill-rule="evenodd" clip-rule="evenodd" d="M14.621 16.6835L16.7797 19.9328C17.7273 19.5061 18.5856 18.9239 19.32 18.2199L17.0692 15.0284C16.4478 15.7948 15.5987 16.3786 14.621 16.6835Z" fill="#623EBA"/>
<path fill-rule="evenodd" clip-rule="evenodd" d="M17.9084 13.5075C18.072 13.0218 18.1606 12.5031 18.1606 11.9643C18.1606 11.4539 18.0812 10.9616 17.9337 10.4983H21.8692C21.9552 10.9839 22 11.4832 22 11.9926C22 12.5093 21.9539 13.0154 21.8655 13.5075H17.9084Z" fill="#623EBA"/>
<path fill-rule="evenodd" clip-rule="evenodd" d="M8.18479 10.5151L4.13071 10.499C4.04477 10.9843 4 11.4834 4 11.9926C4 12.509 4.04605 13.015 4.13438 13.5068L8.20977 13.4906C8.04976 13.0098 7.9633 12.4969 7.9633 11.9643C7.9633 11.4601 8.04079 10.9735 8.18479 10.5151Z" fill="#623EBA"/>
</svg>
